<?xml version="1.0" standalone="yes"?>
<svg xmlns="http://www.w3.org/2000/svg" width="128" height="128">
<path style="fill:#1a4de1; stroke:none;" d="M0 0L0 128L128 128L128 0L0 0z"/>
<path style="fill:#607acb; stroke:none;" d="M19 39L20 40L19 39z"/>
<path style="fill:#7992e1; stroke:none;" d="M20 39L21 40L20 39z"/>
<path style="fill:#acbcf3; stroke:none;" d="M21 39L22 40L21 39z"/>
<path style="fill:#fafbfd; stroke:none;" d="M22.0579 39.7824C14.4581 42.5567 19.2859 54.5288 26.8519 51.392C33.2912 48.7222 29.3723 37.1123 22.0579 39.7824z"/>
<path style="fill:#acbcf3; stroke:none;" d="M26.6667 39.3333L27.3333 39.6667L26.6667 39.3333z"/>
<path style="fill:#607acb; stroke:none;" d="M28 39L29 40L28 39M36 39L37 40L36 39z"/>
<path style="fill:#acbcf3; stroke:none;" d="M37 39L38 40L37 39z"/>
<path style="fill:#fafbfd; stroke:none;" d="M38.1343 39.7577C31.2859 42.5379 35.5759 54.1088 42.9414 51.3812C50.5384 48.5678 45.7607 36.6616 38.1343 39.7577z"/>
<path style="fill:#acbcf3; stroke:none;" d="M43 39L44 40L43 39z"/>
<path style="fill:#7992e1; stroke:none;" d="M44 39L45 40L44 39z"/>
<path style="fill:#607acb; stroke:none;" d="M52 39L53 40L52 39z"/>
<path style="fill:#7992e1; stroke:none;" d="M53 39L54 40L53 39z"/>
<path style="fill:#acbcf3; stroke:none;" d="M54 39L55 40L54 39z"/>
<path style="fill:#fafbfd; stroke:none;" d="M55.0586 39.7824C47.4467 42.5513 51.9228 54.6916 59.8557 51.3927C66.7097 48.5426 62.5231 37.0672 55.0586 39.7824z"/>
<path style="fill:#acbcf3; stroke:none;" d="M59.6667 39.3333L60.3333 39.6667L59.6667 39.3333z"/>
<path style="fill:#607acb; stroke:none;" d="M61 39L62 40L61 39z"/>
<path style="fill:#acbcf3; stroke:none;" d="M19 40L20 41L19 40z"/>
<path style="fill:#7992e1; stroke:none;" d="M29 40L30 41L29 40M35 40L36 41L35 40z"/>
<path style="fill:#acbcf3; stroke:none;" d="M45 40L46 41L45 40M52 40L53 41L52 40z"/>
<path style="fill:#7992e1; stroke:none;" d="M62 40L63 41L62 40z"/>
<path style="fill:#acbcf3; stroke:none;" d="M18 41L19 42L18 41M29 41L30 49L31 49L29 41z"/>
<path style="fill:#607acb; stroke:none;" d="M30 41L31 42L30 41M34 41L35 42L34 41z"/>
<path style="fill:#acbcf3; stroke:none;" d="M46 41L47 42L46 41M51 41L52 42L51 41z"/>
<path style="fill:#607acb; stroke:none;" d="M63 41L64 42L63 41M17.3333 42.6667L17.6667 43.3333L17.3333 42.6667z"/>
<path style="fill:#acbcf3; stroke:none;" d="M34.3333 42.6667L34.6667 43.3333L34.3333 42.6667z"/>
<path style="fill:#607acb; stroke:none;" d="M47 42L47 49L48 49L47 42M50.3333 42.6667L50.6667 43.3333L50.3333 42.6667z"/>
<path style="fill:#acbcf3; stroke:none;" d="M63 42L63 45L64 45L63 42z"/>
<path style="fill:#7992e1; stroke:none;" d="M17 44L17 47L18 47L17 44M50 44L50 47L51 47L50 44z"/>
<path style="fill:#acbcf3; stroke:none;" d="M34 45L34 49L35 49L34 45M63 46L63 49L64 49L63 46z"/>
<path style="fill:#607acb; stroke:none;" d="M17.3333 47.6667L17.6667 48.3333L17.3333 47.6667M50.3333 47.6667L50.6667 48.3333L50.3333 47.6667z"/>
<path style="fill:#acbcf3; stroke:none;" d="M18 49L21 52L18 49z"/>
<path style="fill:#607acb; stroke:none;" d="M30 49L31 50L30 49z"/>
<path style="fill:#7992e1; stroke:none;" d="M34 49L35 50L34 49z"/>
<path style="fill:#acbcf3; stroke:none;" d="M46 49L44 52L46 49M51 49L52 50L51 49z"/>
<path style="fill:#607acb; stroke:none;" d="M63 49L64 50L63 49M18 50L19 51L18 50z"/>
<path style="fill:#acbcf3; stroke:none;" d="M29 50L30 51L29 50M35 50L36 51L35 50z"/>
<path style="fill:#607acb; stroke:none;" d="M46 50L47 51L46 50M51 50L52 51L51 50z"/>
<path style="fill:#acbcf3; stroke:none;" d="M62 50L63 51L62 50z"/>
<path style="fill:#607acb; stroke:none;" d="M19 51L20 52L19 51z"/>
<path style="fill:#7992e1; stroke:none;" d="M28 51L29 52L28 51M36 51L37 52L36 51z"/>
<path style="fill:#acbcf3; stroke:none;" d="M37 51L38 52L37 51z"/>
<path style="fill:#607acb; stroke:none;" d="M45 51L46 52L45 51M52 51L53 52L52 51z"/>
<path style="fill:#acbcf3; stroke:none;" d="M53 51L54 52L53 51z"/>
<path style="fill:#7992e1; stroke:none;" d="M61 51L62 52L61 51z"/>
<path style="fill:#607acb; stroke:none;" d="M21 52L21 53L27 53L21 52M37 52L37 53L44 53L37 52M55 52L55 53L60 53L55 52z"/>
<path style="fill:#7992e1; stroke:none;" d="M21 55L21 56L27 56L21 55z"/>
<path style="fill:#607acb; stroke:none;" d="M27 55L28 56L27 55M37 55L38 56L37 55z"/>
<path style="fill:#7992e1; stroke:none;" d="M38 55L38 56L43 56L38 55z"/>
<path style="fill:#607acb; stroke:none;" d="M43 55L44 56L43 55z"/>
<path style="fill:#7992e1; stroke:none;" d="M54 55L54 56L60 56L54 55z"/>
<path style="fill:#607acb; stroke:none;" d="M60 55L61 56L60 55M70 55L71 56L70 55z"/>
<path style="fill:#7992e1; stroke:none;" d="M71 55L71 56L76 56L71 55z"/>
<path style="fill:#607acb; stroke:none;" d="M76 55L77 56L76 55M86.6667 55.3333L87.3333 55.6667L86.6667 55.3333z"/>
<path style="fill:#7992e1; stroke:none;" d="M88 55L88 56L93 56L88 55z"/>
<path style="fill:#607acb; stroke:none;" d="M93 55L94 56L93 55M103 55L104 56L103 55z"/>
<path style="fill:#7992e1; stroke:none;" d="M104 55L104 56L109 56L104 55z"/>
<path style="fill:#607acb; stroke:none;" d="M109.667 55.3333L110.333 55.6667L109.667 55.3333z"/>
<path style="fill:#7992e1; stroke:none;" d="M19 56L18 58L19 56z"/>
<path style="fill:#fafbfd; stroke:none;" d="M20.3179 57.0278C13.9451 61.2635 21.0676 71.3687 27.6821 66.9722C34.0549 62.7364 26.9324 52.6313 20.3179 57.0278z"/>
<path style="fill:#acbcf3; stroke:none;" d="M28 56L29 57L28 56z"/>
<path style="fill:#607acb; stroke:none;" d="M35 56L36 57L35 56z"/>
<path style="fill:#acbcf3; stroke:none;" d="M36 56L35 58L36 56z"/>
<path style="fill:#fafbfd; stroke:none;" d="M37.2392 57.0278C30.2863 61.3387 38.0828 71.419 44.5664 66.9722C50.9089 62.6221 43.9185 52.8865 37.2392 57.0278z"/>
<path style="fill:#7992e1; stroke:none;" d="M45 56L46 57L45 56M52 56L51 58L52 56z"/>
<path style="fill:#fafbfd; stroke:none;" d="M53.4336 57.0278C47.0628 61.3953 54.0476 71.3819 60.6821 66.9722C66.9827 62.7845 59.9691 52.5474 53.4336 57.0278z"/>
<path style="fill:#acbcf3; stroke:none;" d="M61 56L63 58L61 56z"/>
<path style="fill:#607acb; stroke:none;" d="M62 56L63 57L62 56z"/>
<path style="fill:#acbcf3; stroke:none;" d="M69 56L68 58L69 56z"/>
<path style="fill:#fafbfd; stroke:none;" d="M70.3179 57.0285C63.7482 61.3685 70.7794 71.5657 77.6821 66.9722C83.9484 62.8022 76.7439 52.7835 70.3179 57.0285z"/>
<path style="fill:#acbcf3; stroke:none;" d="M77 56L78 57L77 56z"/>
<path style="fill:#7992e1; stroke:none;" d="M78 56L79 57L78 56M85 56L84 58L85 56z"/>
<path style="fill:#fafbfd; stroke:none;" d="M86.4336 57.0278C80.0628 61.3953 87.0476 71.3819 93.6821 66.9722C99.9827 62.7845 92.9691 52.5474 86.4336 57.0278z"/>
<path style="fill:#acbcf3; stroke:none;" d="M94 56L95 57L94 56M102 56L101 58L102 56z"/>
<path style="fill:#fafbfd; stroke:none;" d="M103.282 57.0278C96.6324 61.2691 104.082 71.4194 110.566 66.9722C116.866 62.6514 109.92 52.7942 103.282 57.0278z"/>
<path style="fill:#7992e1; stroke:none;" d="M111 56L112 57L111 56z"/>
<path style="fill:#acbcf3; stroke:none;" d="M29 57L30 58L29 57z"/>
<path style="fill:#7992e1; stroke:none;" d="M46 57L47 58L46 57M79 57L80 58L79 57z"/>
<path style="fill:#acbcf3; stroke:none;" d="M95 57L96 58L95 57z"/>
<path style="fill:#7992e1; stroke:none;" d="M112 57L113 58L112 57z"/>
<path style="fill:#607acb; stroke:none;" d="M30 58L31 59L30 58z"/>
<path style="fill:#7992e1; stroke:none;" d="M34 58L35 59L34 58z"/>
<path style="fill:#acbcf3; stroke:none;" d="M46 58L47 59L46 58M51 58L52 59L51 58z"/>
<path style="fill:#7992e1; stroke:none;" d="M63 58L64 59L63 58M67 58L68 59L67 58z"/>
<path style="fill:#acbcf3; stroke:none;" d="M79 58L80 59L79 58z"/>
<path style="fill:#607acb; stroke:none;" d="M83.3333 58.6667L83.6667 59.3333L83.3333 58.6667z"/>
<path style="fill:#acbcf3; stroke:none;" d="M84 58L85 59L84 58z"/>
<path style="fill:#607acb; stroke:none;" d="M96 58L97 59L96 58z"/>
<path style="fill:#7992e1; stroke:none;" d="M100 58L101 59L100 58z"/>
<path style="fill:#acbcf3; stroke:none;" d="M112 58L113 59L112 58z"/>
<path style="fill:#607acb; stroke:none;" d="M17 59L18 60L17 59z"/>
<path style="fill:#acbcf3; stroke:none;" d="M30 59L30 65L31 65L30 59M34 59L35 60L34 59z"/>
<path style="fill:#607acb; stroke:none;" d="M47 59L47 65L48 65L47 59M50.3333 59.6667L50.6667 60.3333L50.3333 59.6667z"/>
<path style="fill:#acbcf3; stroke:none;" d="M63 59L63 65L64 65L63 59M67 59L67 65L68 65L67 59z"/>
<path style="fill:#607acb; stroke:none;" d="M80 59L80 65L81 65L80 59z"/>
<path style="fill:#acbcf3; stroke:none;" d="M96 59L96 65L97 65L96 59M100.333 59.6667L100.667 60.3333L100.333 59.6667z"/>
<path style="fill:#607acb; stroke:none;" d="M113.333 59.6667L113.667 60.3333L113.333 59.6667z"/>
<path style="fill:#7992e1; stroke:none;" d="M17 60L17 64L18 64L17 60M83 60L83 63L84 63L83 60z"/>
<path style="fill:#acbcf3; stroke:none;" d="M34.3333 61.6667L34.6667 62.3333L34.3333 61.6667z"/>
<path style="fill:#7992e1; stroke:none;" d="M50 61L50 64L51 64L50 61M113 61L114 62L113 61z"/>
<path style="fill:#acbcf3; stroke:none;" d="M100 62L100 65L101 65L100 62z"/>
<path style="fill:#607acb; stroke:none;" d="M113 62L113 66L114 66L113 62M83 63L83 66L84 66L83 63M17.3333 64.6667L17.6667 65.3333L17.3333 64.6667z"/>
<path style="fill:#acbcf3; stroke:none;" d="M34 64L35 65L34 64z"/>
<path style="fill:#607acb; stroke:none;" d="M50 64L51 65L50 64z"/>
<path style="fill:#7992e1; stroke:none;" d="M30 65L31 66L30 65M34 65L35 66L34 65z"/>
<path style="fill:#acbcf3; stroke:none;" d="M46 65L47 66L46 65z"/>
<path style="fill:#7992e1; stroke:none;" d="M63 65L64 66L63 65M67 65L68 66L67 65M96 65L97 66L96 65M100 65L101 66L100 65z"/>
<path style="fill:#acbcf3; stroke:none;" d="M112 65L113 66L112 65z"/>
<path style="fill:#7992e1; stroke:none;" d="M18 66L19 67L18 66z"/>
<path style="fill:#acbcf3; stroke:none;" d="M29 66L28 68L29 66z"/>
<path style="fill:#607acb; stroke:none;" d="M30 66L31 67L30 66M34 66L37 69L34 66z"/>
<path style="fill:#acbcf3; stroke:none;" d="M35 66L36 67L35 66z"/>
<path style="fill:#7992e1; stroke:none;" d="M46 66L47 67L46 66M51 66L52 67L51 66z"/>
<path style="fill:#acbcf3; stroke:none;" d="M62 66L61 68L62 66z"/>
<path style="fill:#607acb; stroke:none;" d="M63 66L64 67L63 66z"/>
<path style="fill:#7992e1; stroke:none;" d="M79 66L80 67L79 66M84 66L85 67L84 66z"/>
<path style="fill:#acbcf3; stroke:none;" d="M95 66L94 68L95 66z"/>
<path style="fill:#607acb; stroke:none;" d="M96 66L97 67L96 66z"/>
<path style="fill:#acbcf3; stroke:none;" d="M101 66L103 68L101 66z"/>
<path style="fill:#7992e1; stroke:none;" d="M112 66L113 67L112 66z"/>
<path style="fill:#acbcf3; stroke:none;" d="M19 67L20 68L19 67z"/>
<path style="fill:#607acb; stroke:none;" d="M29 67L30 68L29 67z"/>
<path style="fill:#acbcf3; stroke:none;" d="M36 67L37 68L36 67z"/>
<path style="fill:#7992e1; stroke:none;" d="M45 67L46 68L45 67z"/>
<path style="fill:#acbcf3; stroke:none;" d="M52 67L53 68L52 67z"/>
<path style="fill:#607acb; stroke:none;" d="M62 67L63 68L62 67M68 67L70 69L68 67z"/>
<path style="fill:#acbcf3; stroke:none;" d="M69 67L70 68L69 67M78 67L79 68L78 67M85 67L86 68L85 67z"/>
<path style="fill:#607acb; stroke:none;" d="M95 67L96 68L95 67M101 67L102 68L101 67z"/>
<path style="fill:#acbcf3; stroke:none;" d="M111 67L112 68L111 67z"/>
<path style="fill:#607acb; stroke:none;" d="M20 68L21 69L20 68z"/>
<path style="fill:#acbcf3; stroke:none;" d="M21 68L21 69L27 69L21 68z"/>
<path style="fill:#7992e1; stroke:none;" d="M27 68L28 69L27 68M37 68L38 69L37 68z"/>
<path style="fill:#acbcf3; stroke:none;" d="M38 68L38 69L43 69L38 68z"/>
<path style="fill:#7992e1; stroke:none;" d="M43 68L44 69L43 68z"/>
<path style="fill:#607acb; stroke:none;" d="M44 68L45 69L44 68M53 68L54 69L53 68z"/>
<path style="fill:#7992e1; stroke:none;" d="M54 68L55 69L54 68z"/>
<path style="fill:#acbcf3; stroke:none;" d="M55 68L55 69L60 69L55 68z"/>
<path style="fill:#7992e1; stroke:none;" d="M60 68L61 69L60 68z"/>
<path style="fill:#607acb; stroke:none;" d="M61 68L62 69L61 68z"/>
<path style="fill:#7992e1; stroke:none;" d="M70 68L71 69L70 68z"/>
<path style="fill:#acbcf3; stroke:none;" d="M71 68L71 69L77 69L71 68z"/>
<path style="fill:#607acb; stroke:none;" d="M77 68L78 69L77 68M86 68L87 69L86 68z"/>
<path style="fill:#7992e1; stroke:none;" d="M87 68L88 69L87 68z"/>
<path style="fill:#acbcf3; stroke:none;" d="M88 68L88 69L93 69L88 68z"/>
<path style="fill:#7992e1; stroke:none;" d="M93 68L94 69L93 68z"/>
<path style="fill:#607acb; stroke:none;" d="M94 68L95 69L94 68M102 68L103 69L102 68z"/>
<path style="fill:#7992e1; stroke:none;" d="M103 68L104 69L103 68z"/>
<path style="fill:#acbcf3; stroke:none;" d="M104 68L104 69L109 69L104 68z"/>
<path style="fill:#7992e1; stroke:none;" d="M109 68L110 69L109 68z"/>
<path style="fill:#607acb; stroke:none;" d="M110 68L111 69L110 68M88 71L89 72L88 71z"/>
<path style="fill:#7992e1; stroke:none;" d="M20 72L21 73L20 72z"/>
<path style="fill:#acbcf3; stroke:none;" d="M21 72L22 73L21 72z"/>
<path style="fill:#fafbfd; stroke:none;" d="M22.0586 72.7824C14.4726 75.5419 19.2416 87.5283 26.8519 84.2531C33.3355 81.4627 29.4321 70.1002 22.0586 72.7824z"/>
<path style="fill:#acbcf3; stroke:none;" d="M26.6667 72.3333L27.3333 72.6667L26.6667 72.3333z"/>
<path style="fill:#607acb; stroke:none;" d="M28 72L29 73L28 72z"/>
<path style="fill:#acbcf3; stroke:none;" d="M51 75L55 73L51 75z"/>
<path style="fill:#fafbfd; stroke:none;" d="M55.0586 72.7577C47.5021 75.6665 51.8974 87.7277 59.8519 84.2539C66.2849 81.4445 62.5009 69.8929 55.0586 72.7577z"/>
<path style="fill:#acbcf3; stroke:none;" d="M60 72L61 73L60 72z"/>
<path style="fill:#607acb; stroke:none;" d="M61 72L62 73L61 72M69 72L70 73L69 72z"/>
<path style="fill:#acbcf3; stroke:none;" d="M70 72L71 73L70 72z"/>
<path style="fill:#fafbfd; stroke:none;" d="M71.1481 72.7469C64.6911 75.5258 68.5447 87.1203 75.9414 84.3812C83.4993 81.5823 78.8338 69.4393 71.1481 72.7469z"/>
<path style="fill:#7992e1; stroke:none;" d="M77 72L78 73L77 72M86 72L87 73L86 72z"/>
<path style="fill:#acbcf3; stroke:none;" d="M87 72L88 73L87 72z"/>
<path style="fill:#fafbfd; stroke:none;" d="M87.7731 72.8619C80.5184 76.0143 85.4989 87.297 92.8519 84.2423C99.4652 81.4949 95.2879 69.5965 87.7731 72.8619z"/>
<path style="fill:#acbcf3; stroke:none;" d="M89 72L90 73L89 72M93 72L94 73L93 72z"/>
<path style="fill:#607acb; stroke:none;" d="M94 72L95 73L94 72M18 73L19 74L18 73z"/>
<path style="fill:#acbcf3; stroke:none;" d="M19 73L20 74L19 73z"/>
<path style="fill:#7992e1; stroke:none;" d="M29 73L30 74L29 73z"/>
<path style="fill:#607acb; stroke:none;" d="M51 73L52 74L51 73z"/>
<path style="fill:#7992e1; stroke:none;" d="M62 73L63 74L62 73M68 73L69 74L68 73z"/>
<path style="fill:#acbcf3; stroke:none;" d="M78 73L80 75L78 73z"/>
<path style="fill:#607acb; stroke:none;" d="M79 73L80 74L79 73M84 73L85 74L84 73z"/>
<path style="fill:#acbcf3; stroke:none;" d="M85 73L86 74L85 73z"/>
<path style="fill:#7992e1; stroke:none;" d="M95 73L96 74L95 73z"/>
<path style="fill:#acbcf3; stroke:none;" d="M18 74L19 75L18 74z"/>
<path style="fill:#607acb; stroke:none;" d="M30 74L31 75L30 74M63 74L64 75L63 74M67 74L68 75L67 74z"/>
<path style="fill:#acbcf3; stroke:none;" d="M84 74L85 75L84 74z"/>
<path style="fill:#607acb; stroke:none;" d="M96 74L97 75L96 74M17.3333 75.6667L17.6667 76.3333L17.3333 75.6667z"/>
<path style="fill:#acbcf3; stroke:none;" d="M30 75L30 82L31 82L30 75z"/>
<path style="fill:#607acb; stroke:none;" d="M50 75L50 78L51 78L50 75z"/>
<path style="fill:#acbcf3; stroke:none;" d="M63 75L63 82L64 82L63 75M67 75L67 82L68 82L67 75z"/>
<path style="fill:#607acb; stroke:none;" d="M83.3333 75.6667L83.6667 76.3333L83.3333 75.6667z"/>
<path style="fill:#7992e1; stroke:none;" d="M96 75L97 76L96 75z"/>
<path style="fill:#607acb; stroke:none;" d="M80 76L80 82L81 82L80 76z"/>
<path style="fill:#acbcf3; stroke:none;" d="M96 76L96 81L97 81L96 76z"/>
<path style="fill:#7992e1; stroke:none;" d="M17 77L17 81L18 81L17 77M83 77L83 80L84 80L83 77M50 78L51 79L50 78z"/>
<path style="fill:#607acb; stroke:none;" d="M50 79L50 82L51 82L50 79M83.3333 80.6667L83.6667 81.3333L83.3333 80.6667M17 81L18 82L17 81z"/>
<path style="fill:#7992e1; stroke:none;" d="M96 81L97 82L96 81z"/>
<path style="fill:#acbcf3; stroke:none;" d="M18 82L21 85L18 82z"/>
<path style="fill:#607acb; stroke:none;" d="M30 82L31 83L30 82z"/>
<path style="fill:#acbcf3; stroke:none;" d="M51 82L52 83L51 82z"/>
<path style="fill:#607acb; stroke:none;" d="M63 82L64 83L63 82M67 82L68 83L67 82z"/>
<path style="fill:#acbcf3; stroke:none;" d="M79 82L77 85L79 82M84 82L88 85L88 84L84 82z"/>
<path style="fill:#607acb; stroke:none;" d="M96 82L97 83L96 82M18 83L19 84L18 83z"/>
<path style="fill:#acbcf3; stroke:none;" d="M29 83L30 84L29 83z"/>
<path style="fill:#607acb; stroke:none;" d="M51 83L52 84L51 83z"/>
<path style="fill:#acbcf3; stroke:none;" d="M62 83L63 84L62 83M68 83L69 84L68 83z"/>
<path style="fill:#607acb; stroke:none;" d="M79 83L80 84L79 83M84 83L85 84L84 83z"/>
<path style="fill:#acbcf3; stroke:none;" d="M95 83L96 84L95 83z"/>
<path style="fill:#607acb; stroke:none;" d="M19 84L20 85L19 84z"/>
<path style="fill:#acbcf3; stroke:none;" d="M27 84L28 85L27 84z"/>
<path style="fill:#7992e1; stroke:none;" d="M28 84L29 85L28 84z"/>
<path style="fill:#607acb; stroke:none;" d="M52 84L53 85L52 84z"/>
<path style="fill:#acbcf3; stroke:none;" d="M53 84L54 85L53 84M60 84L61 85L60 84z"/>
<path style="fill:#7992e1; stroke:none;" d="M61 84L62 85L61 84M69 84L70 85L69 84z"/>
<path style="fill:#acbcf3; stroke:none;" d="M70 84L71 85L70 84z"/>
<path style="fill:#607acb; stroke:none;" d="M78 84L79 85L78 84M85 84L86 85L85 84z"/>
<path style="fill:#acbcf3; stroke:none;" d="M93 84L94 85L93 84z"/>
<path style="fill:#7992e1; stroke:none;" d="M94 84L95 85L94 84z"/>
<path style="fill:#607acb; stroke:none;" d="M21 85L21 86L27 86L21 85M54 85L54 86L60 86L54 85M71 85L71 86L77 86L71 85M87 85L87 86L92 86L87 85z"/>
</svg>
