<?xml version="1.0" standalone="no"?>
<!DOCTYPE svg PUBLIC "-//W3C//DTD SVG 20010904//EN"
 "http://www.w3.org/TR/2001/REC-SVG-20010904/DTD/svg10.dtd">
<svg version="1.0" xmlns="http://www.w3.org/2000/svg"
 width="128.000000pt" height="128.000000pt" viewBox="0 0 128.000000 128.000000"
 preserveAspectRatio="xMidYMid meet">

<g transform="translate(0.000000,128.000000) scale(0.100000,-0.100000)"
fill="#000000" stroke="none">
<path d="M0 640 l0 -640 640 0 640 0 0 640 0 640 -640 0 -640 0 0 -640z m294
234 c18 -18 21 -66 6 -95 -14 -25 -91 -27 -111 -3 -17 20 -17 78 0 98 17 21
85 21 105 0z m166 1 c16 -20 17 -80 1 -99 -16 -19 -91 -22 -109 -4 -17 17 -15
84 4 102 20 20 88 21 104 1z m164 -1 c18 -18 21 -66 6 -95 -14 -25 -91 -27
-111 -3 -17 20 -17 78 0 98 17 21 85 21 105 0z m-334 -164 c24 -24 26 -77 3
-102 -25 -28 -88 -24 -109 7 -20 30 -12 89 14 104 28 17 71 12 92 -9z m164 7
c13 -10 19 -27 19 -57 0 -50 -20 -70 -67 -70 -42 0 -66 26 -66 71 0 28 6 42
22 53 27 20 68 21 92 3z m164 -3 c27 -19 30 -78 5 -106 -21 -23 -85 -24 -104
-2 -21 25 -17 93 6 110 25 18 65 18 93 -2z m163 6 c15 -8 19 -21 19 -60 0 -54
-15 -70 -66 -70 -40 0 -64 26 -64 71 0 57 57 88 111 59z m167 -6 c27 -19 30
-78 5 -106 -35 -39 -123 -10 -123 41 0 33 18 69 37 74 36 9 59 7 81 -9z m167
2 c26 -19 26 -94 -1 -113 -24 -18 -79 -16 -98 3 -25 24 -21 90 6 108 28 20 68
20 93 2z m-821 -172 c18 -18 21 -66 6 -95 -16 -29 -93 -27 -114 3 -36 51 -7
108 54 108 22 0 45 -7 54 -16z m330 0 c18 -18 21 -66 6 -95 -8 -14 -21 -19
-55 -19 -36 0 -48 5 -61 25 -17 26 -13 67 8 92 15 18 83 16 102 -3z m164 4 c7
-7 12 -30 12 -53 0 -52 -13 -65 -65 -65 -23 0 -46 5 -53 12 -17 17 -15 84 4
102 18 19 85 21 102 4z m166 -4 c18 -18 21 -66 6 -95 -16 -29 -93 -27 -114 3
-36 51 -7 108 54 108 22 0 45 -7 54 -16z"/>
</g>
</svg>
