<svg width="30" height="26" viewBox="0 0 30 26" fill="none" xmlns="http://www.w3.org/2000/svg">
<path d="M20 18L15 13L10 18" stroke="#2851E3" stroke-width="2" stroke-linecap="round" stroke-linejoin="round"/>
<path d="M15 13V24.25" stroke="#2851E3" stroke-width="2" stroke-linecap="round" stroke-linejoin="round"/>
<path d="M25.4875 20.9875C26.7067 20.3228 27.6698 19.2711 28.2248 17.9983C28.7799 16.7254 28.8953 15.304 28.5528 13.9583C28.2102 12.6127 27.4294 11.4194 26.3333 10.5668C25.2373 9.71421 23.8886 9.2509 22.5 9.24998H20.925C20.5466 7.78653 19.8414 6.4279 18.8624 5.27622C17.8834 4.12454 16.6561 3.20979 15.2726 2.60074C13.8892 1.99169 12.3857 1.70418 10.8751 1.75983C9.3646 1.81549 7.88633 2.21286 6.55147 2.92206C5.2166 3.63127 4.05989 4.63386 3.16827 5.85446C2.27666 7.07506 1.67336 8.4819 1.40372 9.96922C1.13408 11.4565 1.20513 12.9856 1.61151 14.4416C2.0179 15.8975 2.74905 17.2423 3.75 18.375" stroke="#2851E3" stroke-width="2" stroke-linecap="round" stroke-linejoin="round"/>
<path d="M20 18L15 13L10 18" stroke="#2851E3" stroke-width="2" stroke-linecap="round" stroke-linejoin="round"/>
</svg>
